<svg id="图层_1" data-name="图层 1" xmlns="http://www.w3.org/2000/svg" xmlns:xlink="http://www.w3.org/1999/xlink" viewBox="0 0 489.88 337.81"><defs><linearGradient id="未命名的渐变_8" y1="143.87" x2="335.82" y2="143.87" gradientUnits="userSpaceOnUse"><stop offset="0" stop-color="#187fc4"/><stop offset="1" stop-color="#187fc4" stop-opacity="0.4"/></linearGradient><linearGradient id="未命名的渐变_8-2" x1="153.11" y1="262.94" x2="340.32" y2="262.94" xlink:href="#未命名的渐变_8"/><linearGradient id="未命名的渐变_8-3" x1="356.22" y1="180.87" x2="489.8" y2="180.87" xlink:href="#未命名的渐变_8"/><linearGradient id="未命名的渐变_8-4" x1="356.2" y1="232.74" x2="489.88" y2="232.74" xlink:href="#未命名的渐变_8"/><linearGradient id="未命名的渐变_8-5" x1="356.14" y1="277.85" x2="489.8" y2="277.85" xlink:href="#未命名的渐变_8"/></defs><path d="M191.7,108.91h-2.23q-43.93,0-87.88,0a3.91,3.91,0,0,1-3.21-1.36C85.76,93.71,73,80,60.53,66c-3.25-3.64-5.71-8-8.44-12.09Q34.63,27.64,17.23,1.35A13.27,13.27,0,0,1,16.59.14c.79,0,1.39-.1,2-.1C94.74,0,170.91-.08,247.09.12,266.32.17,283.77,6.47,299.23,18a90.44,90.44,0,0,1,35.91,83.89,88.69,88.69,0,0,1-17.71,43.78,89.83,89.83,0,0,1-40,30,85.9,85.9,0,0,1-31,5.89q-59.73.07-119.47,0c-1.88,0-2.79.47-3.3,2.36-2.61,9.82-5.34,19.62-8,29.43q-4.69,17-9.42,34.09c-2.55,9.26-5.07,18.53-7.62,27.8-1,3.83-2.1,7.65-3.24,11.46a1.75,1.75,0,0,1-1.25,1,22.59,22.59,0,0,1-3.19,0l-89.22,0c-.42,0-.84-.07-1.69-.16,4.33-2,8.23-3.88,12.18-5.64a4.18,4.18,0,0,0,2.52-3.06c2.48-9.16,5.07-18.3,7.59-27.45s4.95-18.24,7.46-27.35c2.67-9.7,5.39-19.38,8.07-29.08,2.54-9.21,5-18.42,7.59-27.63,2.29-8.3,4.63-16.58,6.92-24.88,2.19-7.92,4.39-15.83,6.49-23.77.39-1.46,1.08-1.79,2.47-1.78q35,0,69.9,0,56.88,0,113.76,0A26.16,26.16,0,0,0,271.13,88.4C270,75.34,258.55,64.67,245.45,64.65q-45.7-.06-91.41,0a7.27,7.27,0,0,0-1.56.34,6.5,6.5,0,0,0,.8,1.5q18.63,20.51,37.29,41C190.86,107.78,191.11,108.14,191.7,108.91Z" fill="url(#未命名的渐变_8)"/><path d="M330.65,337.81,153.11,250.23l.06-.34c.52,0,1-.08,1.56-.08H225.3a5.71,5.71,0,0,0,1.17,0c.34-.06.86-.21.94-.45s-.16-.72-.39-1c-1.56-1.75-3.16-3.47-4.75-5.21q-23.72-26-47.42-51.94c-.3-.32-.56-.68-1.06-1.3,1-.06,1.64-.14,2.32-.14,22.68,0,45.36.11,68-.08,6.08-.05,12.15-1,18.21-1.59a2.59,2.59,0,0,1,2.46,1q21.63,23.79,43.28,47.55l30.18,33.13,2,2.28c-1,0-1.64.1-2.28.1H273.53a2.49,2.49,0,0,0-.67,0c-.51.12-1,.3-1.49.46a6.88,6.88,0,0,0,.73,1.23q6.42,7,12.87,13.93l44.43,48.07c.52.56,1,1.14,1.54,1.71Z" fill="url(#未命名的渐变_8-2)"/><path d="M421.94,150c18.39.24,35.26,2.08,51.35,8.15A49.24,49.24,0,0,1,484.92,165a12.28,12.28,0,0,1,4.84,10.43c-.05,3.34-.14,6.68,0,10,.26,5.74-2.39,9.89-6.81,13.13-6.07,4.47-13.08,6.77-20.26,8.55a166.94,166.94,0,0,1-54.88,4,137.86,137.86,0,0,1-31.27-5.92c-6.15-2-12-4.61-16.62-9.38a12.66,12.66,0,0,1-3.7-9.24c0-3.66.08-7.32,0-11-.13-5,2.13-8.68,5.89-11.63,5.34-4.21,11.55-6.49,18-8.35C394.24,151.54,408.67,150.28,421.94,150Z" fill="url(#未命名的渐变_8-3)"/><path d="M356.42,206.34c5.31,2.53,10.44,5.44,15.9,7.46a110.94,110.94,0,0,0,33.27,6.65c9.66.48,19.38,1,29,.5,14.95-.7,29.72-2.95,43.62-9,3.19-1.37,6.14-3.29,9.2-5l2.13-1.14c.07,1.36.17,2.27.17,3.19,0,7.55-.32,15.12.1,22.65.45,7.94-3.45,12.92-9.81,16.55-8.54,4.86-17.93,7.2-27.51,8.85a177.44,177.44,0,0,1-47.5,1.55c-13.41-1.32-26.6-3.67-38.63-10.18a33.9,33.9,0,0,1-6.42-4.88,11.44,11.44,0,0,1-3.72-8.73q-.06-13.71-.05-27.42A3.87,3.87,0,0,1,356.42,206.34Z" fill="url(#未命名的渐变_8-4)"/><path d="M356.44,253.32c10.39,7.84,22.17,10.76,34.16,13,18.18,3.4,36.49,3.54,54.83,1.49,11-1.24,21.8-3.4,32.05-7.69,3.35-1.4,6.46-3.38,9.67-5.11.68-.36,1.32-.78,2.37-1.41.1,1.23.22,2,.22,2.87,0,6.52-.13,13,.05,19.55.16,5.72-2.31,9.88-6.78,13.14-5.95,4.34-12.77,6.65-19.79,8.46A163.41,163.41,0,0,1,421,302.37a161.8,161.8,0,0,1-34.28-3.76c-7.75-1.72-15.38-3.93-22.17-8.34-5.44-3.53-8.73-8-8.35-14.92.35-6.5.06-13,.07-19.55C356.24,255.11,356.35,254.42,356.44,253.32Z" fill="url(#未命名的渐变_8-5)"/></svg>